<?xml version="1.0" encoding="utf-8"?>
<!-- Generator: Adobe Illustrator 22.1.0, SVG Export Plug-In . SVG Version: 6.00 Build 0)  -->
<svg version="1.1" id="Calque_1" xmlns="http://www.w3.org/2000/svg" xmlns:xlink="http://www.w3.org/1999/xlink" x="0px" y="0px"
	 viewBox="0 0 283.5 104.3" style="enable-background:new 0 0 283.5 104.3;" xml:space="preserve">
<style type="text/css">
	.st0{fill:#FFFFFF;}
	.st1{fill:url(#SVGID_1_);}
	.st2{opacity:0.5;fill:url(#SVGID_2_);enable-background:new    ;}
	.st3{fill:url(#SVGID_3_);}
	.st4{fill:#E6331B;}
	.st5{fill:#706F6F;}
</style>
<polygon class="st0" points="283.5,104.3 283.5,0 141.7,0 0,0 0,104.3 "/>
<g>
	<g>
		<g>
			
				<radialGradient id="SVGID_1_" cx="2969.6475" cy="1003.1389" r="31.0043" gradientTransform="matrix(1.581 -0.2322 -0.2322 -1.581 -4238.1377 2321.825)" gradientUnits="userSpaceOnUse">
				<stop  offset="0.2085" style="stop-color:#FFFFFF"/>
				<stop  offset="0.4263" style="stop-color:#E1E4E6"/>
				<stop  offset="0.8987" style="stop-color:#949FA6"/>
				<stop  offset="0.9997" style="stop-color:#838F98"/>
			</radialGradient>
			<path class="st1" d="M267.8,47.9c2.5,17.2-9.4,33.1-26.5,35.7c-17.2,2.5-33.1-9.4-35.7-26.5c-2.5-17.2,9.4-33.1,26.5-35.7
				C249.3,18.9,265.3,30.8,267.8,47.9z"/>
			
				<radialGradient id="SVGID_2_" cx="2969.6475" cy="1003.1389" r="31.0043" gradientTransform="matrix(1.581 -0.2322 -0.2322 -1.581 -4238.1377 2321.825)" gradientUnits="userSpaceOnUse">
				<stop  offset="0.2085" style="stop-color:#FFFFFF"/>
				<stop  offset="0.4263" style="stop-color:#E1E4E6"/>
				<stop  offset="0.8987" style="stop-color:#949FA6"/>
				<stop  offset="0.9997" style="stop-color:#838F98"/>
			</radialGradient>
			<path class="st2" d="M267.8,47.9c2.5,17.2-9.4,33.1-26.5,35.7c-17.2,2.5-33.1-9.4-35.7-26.5c-2.5-17.2,9.4-33.1,26.5-35.7
				C249.3,18.9,265.3,30.8,267.8,47.9z"/>
		</g>
		<g>
			<g>
				
					<linearGradient id="SVGID_3_" gradientUnits="userSpaceOnUse" x1="225.9211" y1="126.9191" x2="247.5116" y2="186.2384" gradientTransform="matrix(1 0 0 -1 -6.182224e-05 209.0995)">
					<stop  offset="0" style="stop-color:#E3051B"/>
					<stop  offset="1" style="stop-color:#EF7D00"/>
				</linearGradient>
				<path class="st3" d="M255.3,83.7L255.3,83.7L255.3,83.7c3-2.9,4.4-7,3.9-11c0-0.1,0-0.2,0-0.2c-0.5-3.1-2-6.2-4.9-10.2
					c-3.6-4.9-6.4-8.7-9.5-12.8c-0.8-1.1-1.6-2.1-2.4-3.1c-7.3-9.4-14.2-18.4-8.1-23.8c1.6-1.4,3.7-2.2,6.3-2.2
					c-3.8-1.5-8.1-2.7-12.2-2.7c-0.9,0-1.7,0.1-2.6,0.2c-0.2,0.1-0.5,0.1-0.8,0.2c-0.6,0.1-1.3,0.2-1.9,0.4l0,0H223h-0.1h-0.1
					c-1.7,0.6-3.2,1.5-4.6,2.7l0,0l0,0l0,0c-3,2.8-4.4,6.9-3.8,11c0,0.1,0,0.2,0,0.2c0.5,3.2,2.2,6.6,4.9,10.2
					c1.7,2.2,3.2,4.2,4.7,6.2c1.6,2.2,3.2,4.3,4.9,6.6c0.8,1.1,1.6,2.1,2.4,3.1c7.3,9.4,14.2,18.4,8.1,23.8
					c-1.6,1.4-3.7,2.2-6.3,2.2c3.8,1.5,8.1,2.7,12.2,2.7c0.9,0,1.7-0.1,2.6-0.2c0.2-0.1,0.5-0.1,0.8-0.2c0.6-0.1,1.3-0.2,1.9-0.4
					l0,0h0.1h0.1h0.1C252.3,85.9,253.9,85,255.3,83.7L255.3,83.7z"/>
			</g>
			<path class="st0" d="M260.4,72.5c0-0.1,0-0.1,0-0.2c-0.5-3.1-2-6.4-5.2-10.8c-3.3-4.6-6.2-8.5-9.5-12.8l0,0
				c-7.5-9.9-16.5-20-10.6-25.2c1.5-1.4,3.5-1.9,5.7-1.9c4,0,8.6,1.8,12.1,3.9l0,0c0,0-12.8-9.2-24.5-9.2c-1,0-1.9,0.1-2.9,0.2
				c-0.2,0.1-0.4,0.1-0.7,0.2c-0.7,0.1-1.4,0.3-2,0.5h-0.1c-0.1,0-0.2,0.1-0.2,0.1c-1.8,0.6-3.5,1.6-5,3c0,0,0,0-0.1,0.1
				c-3.2,3-4.9,7.5-4.2,12.1c0,0.1,0,0.1,0,0.2c0.5,3.1,2,6.7,5.2,10.8c3.5,4.5,6.2,8.5,9.5,12.8l0,0c7.5,9.9,16.5,20,10.6,25.2
				c-1.5,1.4-3.5,1.9-5.7,1.9c-4,0-8.6-1.8-12.1-3.9l0,0c0,0,12.8,9.2,24.5,9.2c1,0,1.9-0.1,2.9-0.2c0.2-0.1,0.4-0.1,0.7-0.2
				c0.7-0.1,1.4-0.3,2-0.5h0.1c0.1,0,0.2-0.1,0.2-0.1c1.8-0.6,3.5-1.6,5-3c0,0,0,0,0.1-0.1C259.4,81.6,261.1,77.2,260.4,72.5z
				 M255.3,83.7L255.3,83.7L255.3,83.7l-0.1,0.1c-1.3,1.2-2.9,2.1-4.6,2.7h-0.1h-0.1h-0.1l0,0c-0.6,0.2-1.2,0.3-1.9,0.4
				c-0.3,0-0.6,0.1-0.8,0.2c-0.8,0.1-1.7,0.2-2.6,0.2c-4.1,0-8.4-1.2-12.2-2.7c2.6,0,4.7-0.8,6.3-2.2c6.1-5.5-0.8-14.4-8.1-23.8
				c-0.8-1-1.6-2.1-2.4-3.1c-1.7-2.2-3.3-4.3-4.9-6.6c-1.5-2-3-4.1-4.7-6.2c-2.7-3.5-4.4-7-4.9-10.2c0-0.1,0-0.2,0-0.2
				c-0.6-4,0.8-8.2,3.8-11l0,0l0,0l0,0c1.3-1.2,2.9-2.1,4.6-2.7h0.1h0.1h0.1l0,0c0.6-0.2,1.2-0.3,1.9-0.4c0.3,0,0.6-0.1,0.8-0.2
				c0.8-0.1,1.7-0.2,2.6-0.2c4.1,0,8.4,1.2,12.2,2.7c-2.6,0-4.7,0.8-6.3,2.2c-6.1,5.5,0.8,14.4,8.1,23.8c0.8,1,1.6,2.1,2.4,3.1
				c3.1,4,6,7.9,9.5,12.8c2.9,4,4.4,7.1,4.9,10.2c0,0.1,0,0.2,0,0.2C259.7,76.8,258.3,80.9,255.3,83.7z"/>
		</g>
	</g>
	<path class="st4" d="M170.2,58.2c0,0-0.5-6.4-0.5-12.7c0-3.3,0.2-7.8,0.2-8.9l5.8,8.9l7.8,12.7h6c0,0-0.5-11.4-0.5-17.1
		c0-5.6,0.5-13.4,0.5-13.4h-5.2c0,0,0.5,6.5,0.5,12c0,5-0.2,8.6-0.2,9.5l-5.6-8.6l-8-12.9h-6c0,0,0.5,7.7,0.5,14.6
		c0,5.1-0.5,15.9-0.5,15.9S170.2,58.2,170.2,58.2z M153.6,43l-0.2,15.1h6L159.2,43l0.2-15.3h-6L153.6,43z M134.2,31.6l5.5-0.2
		c3.3-0.1,8.7,0.7,8.7,0.7l0.2-4.5l-9.9,0.2l-10.6-0.2l0.2,14.8l-0.2,15.8l6.2-0.1L134,45.8l4.8-0.1c3.3,0,8.6,0.4,8.6,0.4l0.2-4.3
		c0,0-5.6,0.4-8.8,0.4l-4.9-0.1L134.2,31.6z M106.2,44.6l3.8-11.2l4,11.3l0.4,1.3c-1.4,0.1-3.4,0.3-5,0.3c-1.2,0-2.6-0.1-3.8-0.2
		L106.2,44.6z M118.6,58.3l6.3-0.1l-6.2-15.7l-5.9-14.8h-5.6l-5.7,14.8l-6.1,15.7l6.3,0.1l2.6-8.1c1-0.1,3.1-0.3,5.1-0.3
		c2.8,0,5.3,0.3,6.3,0.4L118.6,58.3z M78.5,43.2l0.3-15.6l-6.2,0.1l0.2,15.7l-0.2,14.8L83.3,58l9.6,0.2l0.2-4.5c0,0-5.5,0.8-8.8,0.7
		l-5.5-0.2L78.5,43.2z M51.3,44.6l3.8-11.2l4,11.3l0.4,1.3c-1.4,0.1-3.4,0.3-5,0.3c-1.2,0-2.6-0.1-3.8-0.2L51.3,44.6z M63.7,58.3
		l6.3-0.1l-6.2-15.7l-5.9-14.8h-5.6l-5.7,14.8l-6.1,15.7l6.3,0.1l2.6-8.1c1-0.1,3.1-0.3,5.1-0.3c2.8,0,5.3,0.3,6.3,0.4L63.7,58.3z
		 M26.6,58.6c7.5,0,11.5-3.5,11.5-8.8c0-10.8-15.8-7.9-15.8-14.7c0-2.2,1.5-3.6,5.3-3.6c3.9,0,6.6,1.5,9.1,2.8l-0.4-5.6
		c-2.3-1.1-6.6-1.5-8.8-1.5c-5.9,0-10.6,2.7-10.6,8.7c0,10.7,15.4,7.6,15.4,14.3c0,2.7-2.6,4-5.8,4c-3.6,0-7.9-1.3-10.1-3l0.5,5.7
		C20,58.1,23.4,58.6,26.6,58.6"/>
	<g>
		<path class="st5" d="M72.7,74.7c0,1.9-1.5,3-4,3c-1.5,0-3,0-4.6-0.1V67.2c1.8,0,3.2-0.1,4.4-0.1c2.4,0,3.7,1,3.7,2.8
			c0,1.2-0.7,2.1-1.9,2.4C71.8,72.6,72.7,73.5,72.7,74.7z M67.3,69h-1v2.5h2.2c1,0,1.7-0.5,1.7-1.3c0-0.9-0.6-1.2-1.9-1.2
			C68,69,67.7,69,67.3,69z M70.5,74.5c0-0.8-0.7-1.2-1.7-1.2h-2.5v2.4c1,0,1.7,0.1,2.1,0.1C69.8,75.8,70.5,75.4,70.5,74.5z"/>
		<path class="st5" d="M83.9,77.6h-1.8L79.4,72L79,77.6h-2.1l0.6-10.4h2l3.5,7.7l3.5-7.7h2.1l0.6,10.4H87L86.6,72L83.9,77.6z"/>
		<path class="st5" d="M102.3,69.5c-1.3-0.3-2.3-0.4-3-0.4c-1.2,0-2.1,0.3-2.8,0.9c-0.6,0.6-1,1.4-1,2.4s0.3,1.8,1,2.5
			c0.7,0.6,1.5,0.9,2.6,0.9c0.7,0,1.7-0.2,3.2-0.4l0.4,1.9c-1.3,0.4-2.5,0.6-3.7,0.6c-1.7,0-3.1-0.5-4.2-1.5s-1.6-2.3-1.6-4
			c0-1.6,0.5-2.9,1.6-3.9S97.3,67,99,67c1.2,0,2.5,0.2,3.7,0.5L102.3,69.5z"/>
		<path class="st5" d="M114.2,71.4v2h-4.8v2.2h5.5v2h-7.7V67.2h7.7v2h-5.5v2.2C109.4,71.4,114.2,71.4,114.2,71.4z"/>
		<path class="st5" d="M134.9,76.7c-1.8,0.8-3.5,1.1-4.8,1.1c-1.7,0-3-0.5-4-1.5s-1.5-2.3-1.5-4c0-1.6,0.5-2.9,1.6-3.9
			s2.5-1.5,4.2-1.5c1.2,0,2.4,0.2,3.6,0.5l-0.4,2c-1.5-0.3-2.6-0.4-3.1-0.4c-1.1,0-2,0.3-2.7,0.9s-1,1.4-1,2.4s0.3,1.8,0.9,2.4
			s1.4,0.9,2.4,0.9c0.8,0,1.7-0.1,2.8-0.4v-1.8h-3.5v-2h5.6v5.3H134.9z"/>
		<path class="st5" d="M142.9,74.4h-1.2v3.2h-2.2V67.2c1.6-0.1,3-0.1,4-0.1c2.6,0,4.3,1.3,4.3,3.6c0,1.4-0.7,2.5-2,3.2l2.6,3.7h-2.7
			l-2.1-3.2C143.6,74.4,142.9,74.4,142.9,74.4z M143.7,72.5c1.1,0,1.9-0.7,1.9-1.8c0-1.1-0.8-1.7-2.1-1.7c-0.8,0-1.4,0-1.8,0v3.4
			L143.7,72.5L143.7,72.5z"/>
		<path class="st5" d="M157.3,66.9c1.6,0,3,0.5,4,1.5s1.6,2.3,1.6,3.9s-0.5,2.9-1.6,3.9c-1,1-2.4,1.5-4,1.5s-3-0.5-4-1.5
			s-1.5-2.3-1.5-3.9s0.5-2.9,1.5-3.9S155.7,66.9,157.3,66.9z M157.3,75.7c1,0,1.7-0.3,2.3-0.9s0.9-1.4,0.9-2.4s-0.3-1.8-0.9-2.4
			c-0.6-0.6-1.4-0.9-2.3-0.9s-1.7,0.3-2.3,0.9s-0.9,1.4-0.9,2.4s0.3,1.8,0.9,2.4C155.6,75.4,156.4,75.7,157.3,75.7z"/>
		<path class="st5" d="M176.6,73c0,1.5-0.4,2.7-1.3,3.5c-0.9,0.9-2,1.3-3.5,1.3s-2.6-0.4-3.5-1.3s-1.3-2-1.3-3.5v-5.8h2.2V73
			c0,1.7,1,2.7,2.6,2.7c1.5,0,2.6-1,2.6-2.7v-5.8h2.2V73z"/>
		<path class="st5" d="M188.3,68c0.8,0.7,1.2,1.6,1.2,2.7s-0.4,2.1-1.2,2.7c-0.8,0.7-1.9,1-3.2,1h-1.6v3.1h-2.2V67.2
			c1.5-0.1,2.8-0.1,3.8-0.1C186.4,67,187.4,67.4,188.3,68z M185.3,72.5c1.2,0,2-0.7,2-1.8c0-1.1-0.8-1.7-2-1.7c-0.8,0-1.5,0-1.8,0
			v3.5H185.3z"/>
	</g>
</g>
</svg>
